<?xml version="1.0" standalone="no"?>
<!DOCTYPE svg PUBLIC "-//W3C//DTD SVG 20010904//EN"
 "http://www.w3.org/TR/2001/REC-SVG-20010904/DTD/svg10.dtd">
<svg version="1.0" xmlns="http://www.w3.org/2000/svg"
 width="1063.000000pt" height="497.000000pt" viewBox="0 0 1063.000000 497.000000"
 preserveAspectRatio="xMidYMid meet">

<g transform="translate(0.000000,497.000000) scale(0.100000,-0.100000)"
fill="#1f8832" stroke="none">
<path d="M0 4952 c0 -43 31 -277 50 -376 109 -566 444 -1136 895 -1525 420
-362 903 -585 1444 -666 168 -25 409 -35 876 -35 l440 0 22 -108 c44 -214 106
-396 208 -609 376 -787 1095 -1358 1947 -1547 294 -65 102 -60 2499 -63 l2177
-3 6 22 c22 83 38 315 33 468 -17 472 -164 891 -446 1272 -309 415 -776 722
-1281 842 -249 59 -244 59 -1157 63 l-843 4 0 84 c0 553 -245 1132 -649 1535
-385 384 -874 609 -1416 649 -92 7 -935 11 -2472 11 -2218 0 -2333 -1 -2333
-18z m2818 -882 c49 -30 64 -63 127 -281 32 -110 61 -202 65 -204 4 -2 33 88
66 202 32 113 67 219 76 234 37 61 66 69 246 69 l162 0 0 -430 0 -430 -140 0
-140 0 0 257 c0 141 -3 254 -6 250 -4 -3 -41 -118 -83 -254 l-77 -248 -103 0
-103 0 -75 245 c-42 135 -79 249 -84 255 -5 5 -9 -98 -9 -248 l0 -257 -140 0
-140 0 0 430 0 430 163 0 c144 0 166 -2 195 -20z m1132 -410 l0 -430 -140 0
-140 0 0 430 0 430 140 0 140 0 0 -430z m818 407 c51 -28 110 -85 139 -135 21
-35 27 -62 31 -124 l5 -79 -304 3 -304 3 -67 32 c-37 17 -88 52 -113 78 -49
48 -98 143 -110 208 l-6 38 348 -3 c313 -3 351 -5 381 -21z m162 -396 c0 -32
-119 -146 -172 -163 -9 -3 18 -51 75 -136 48 -73 87 -134 87 -137 0 -3 -71 -5
-157 -5 l-158 1 -75 124 -75 124 -57 1 -58 0 0 -125 0 -125 -140 0 -140 0 0
225 0 225 435 0 c259 0 435 -4 435 -9z m3620 -1052 c525 -48 1031 -295 1395
-681 319 -339 521 -763 580 -1221 23 -183 18 -476 -11 -620 l-6 -28 -2111 4
c-2310 4 -2184 1 -2475 62 -830 175 -1538 724 -1916 1485 -119 239 -208 501
-232 679 l-7 51 1534 2 1534 3 13 105 c7 58 15 120 18 138 l5 32 782 0 c466 0
828 -4 897 -11z"/>
<path d="M5423 1354 l-201 -435 34 3 c34 3 36 6 87 118 l53 115 258 0 258 0
52 -115 c52 -114 52 -115 89 -118 l36 -3 -77 168 c-43 92 -134 288 -202 436
-123 266 -124 267 -155 267 l-31 0 -201 -436z m348 109 l108 -238 -221 -3
c-121 -1 -223 -1 -225 1 -2 3 33 85 78 183 45 99 94 208 110 243 16 35 32 61
36 58 3 -4 55 -114 114 -244z"/>
<path d="M8990 1650 l0 -100 -45 0 c-43 0 -45 -1 -45 -30 0 -29 2 -30 44 -30
l45 0 3 -239 c3 -224 4 -241 24 -267 37 -51 70 -68 137 -72 80 -5 117 9 117
44 0 24 -2 25 -32 17 -48 -12 -114 -6 -142 12 -40 27 -46 64 -46 291 l0 214
110 0 110 0 0 30 0 30 -110 0 -110 0 0 100 0 100 -30 0 -30 0 0 -100z"/>
<path d="M6362 1544 c-55 -20 -145 -103 -171 -157 -51 -105 -48 -218 7 -320
66 -123 219 -188 355 -152 58 15 125 54 160 92 16 19 16 21 -2 38 -19 17 -22
16 -62 -19 -174 -148 -429 -24 -429 210 0 228 249 353 417 209 48 -41 58 -43
74 -14 14 27 -11 55 -84 95 -44 23 -66 28 -137 31 -58 2 -98 -2 -128 -13z"/>
<path d="M7029 1546 c-93 -33 -165 -104 -200 -195 -28 -75 -23 -195 10 -261
28 -56 94 -126 141 -150 124 -63 282 -38 375 59 27 30 28 32 12 48 -19 19 -18
19 -81 -31 -126 -100 -300 -61 -381 85 -26 47 -30 64 -30 134 0 70 4 87 30
134 37 67 85 107 153 127 87 26 161 8 244 -59 37 -30 38 -30 58 -12 l20 18
-27 30 c-16 16 -55 42 -88 58 -49 24 -73 29 -130 29 -38 -1 -86 -7 -106 -14z"/>
<path d="M7653 1541 c-96 -44 -151 -111 -179 -221 -38 -151 29 -315 155 -380
119 -60 262 -42 371 49 34 29 34 30 16 50 l-19 21 -36 -29 c-116 -91 -250 -94
-349 -7 -39 34 -82 116 -82 159 l0 27 261 0 262 0 -6 68 c-12 128 -95 244
-195 272 -59 16 -152 12 -199 -9z m170 -42 c76 -21 157 -127 157 -206 l0 -33
-225 0 -225 0 0 28 c0 40 42 122 83 160 57 55 131 73 210 51z"/>
<path d="M8412 1543 c-26 -9 -65 -37 -98 -69 l-54 -54 0 65 0 65 -30 0 -30 0
0 -415 0 -415 30 0 30 0 0 165 0 164 45 -48 c175 -187 467 -87 514 175 28 155
-60 322 -196 368 -58 20 -154 19 -211 -1z m203 -60 c187 -94 194 -399 12 -495
-32 -17 -59 -22 -112 -22 -83 0 -132 21 -188 83 -51 56 -67 101 -67 185 0 104
33 168 123 236 52 39 167 45 232 13z"/>
</g>
</svg>
